<svg width="28" height="28" viewBox="0 0 28 28" fill="none" xmlns="http://www.w3.org/2000/svg">
<g clip-path="url(#clip0_119_89)">
<path d="M28 0H0V28H28V0Z" fill="#2C5FF6"/>
<path fill-rule="evenodd" clip-rule="evenodd" d="M14 23.7999C19.4124 23.7999 23.7999 19.4124 23.7999 14C23.7999 8.58756 19.4124 4.19995 14 4.19995C8.58756 4.19995 4.19995 8.58756 4.19995 14C4.19995 19.4124 8.58756 23.7999 14 23.7999ZM11.55 10.8C11.1358 10.8 10.8 11.1358 10.8 11.55V16.45C10.8 16.8642 11.1358 17.2 11.55 17.2H16.45C16.8642 17.2 17.2 16.8642 17.2 16.45V11.55C17.2 11.1358 16.8642 10.8 16.45 10.8H11.55Z" fill="white"/>
</g>
<defs>
<clipPath id="clip0_119_89">
<rect width="28" height="28" rx="6" fill="white"/>
</clipPath>
</defs>
</svg>
