<svg width="28" height="28" viewBox="0 0 28 28" fill="none" xmlns="http://www.w3.org/2000/svg">
<g clip-path="url(#clip0_119_54)">
<path d="M24.089 3.11987L15.3445 9.61453L16.9616 5.78277L24.089 3.11987Z" fill="#E2761B" stroke="#E2761B" stroke-width="0.0878845" stroke-linecap="round" stroke-linejoin="round"/>
<path d="M3.9021 3.11987L12.5763 9.67605L11.0383 5.78277L3.9021 3.11987Z" fill="#E4761B" stroke="#E4761B" stroke-width="0.0878845" stroke-linecap="round" stroke-linejoin="round"/>
<path d="M20.943 18.1746L18.614 21.7427L23.5971 23.1137L25.0296 18.2537L20.943 18.1746Z" fill="#E4761B" stroke="#E4761B" stroke-width="0.0878845" stroke-linecap="round" stroke-linejoin="round"/>
<path d="M2.97925 18.2537L4.40297 23.1137L9.38603 21.7427L7.05709 18.1746L2.97925 18.2537Z" fill="#E4761B" stroke="#E4761B" stroke-width="0.0878845" stroke-linecap="round" stroke-linejoin="round"/>
<path d="M9.10488 12.1455L7.71631 14.246L12.6642 14.4657L12.4884 9.14868L9.10488 12.1455Z" fill="#E4761B" stroke="#E4761B" stroke-width="0.0878845" stroke-linecap="round" stroke-linejoin="round"/>
<path d="M18.8863 12.1455L15.4588 9.08716L15.3445 14.4657L20.2836 14.246L18.8863 12.1455Z" fill="#E4761B" stroke="#E4761B" stroke-width="0.0878845" stroke-linecap="round" stroke-linejoin="round"/>
<path d="M9.38599 21.7426L12.3565 20.2925L9.79026 18.2888L9.38599 21.7426Z" fill="#E4761B" stroke="#E4761B" stroke-width="0.0878845" stroke-linecap="round" stroke-linejoin="round"/>
<path d="M15.6348 20.2925L18.614 21.7426L18.201 18.2888L15.6348 20.2925Z" fill="#E4761B" stroke="#E4761B" stroke-width="0.0878845" stroke-linecap="round" stroke-linejoin="round"/>
<path d="M18.614 21.7426L15.6348 20.2925L15.872 22.2348L15.8457 23.0521L18.614 21.7426Z" fill="#D7C1B3" stroke="#D7C1B3" stroke-width="0.0878845" stroke-linecap="round" stroke-linejoin="round"/>
<path d="M9.38599 21.7426L12.1543 23.0521L12.1367 22.2348L12.3565 20.2925L9.38599 21.7426Z" fill="#D7C1B3" stroke="#D7C1B3" stroke-width="0.0878845" stroke-linecap="round" stroke-linejoin="round"/>
<path d="M12.1983 17.0057L9.71997 16.2763L11.4689 15.4766L12.1983 17.0057Z" fill="#233447" stroke="#233447" stroke-width="0.0878845" stroke-linecap="round" stroke-linejoin="round"/>
<path d="M15.7927 17.0057L16.5222 15.4766L18.2799 16.2763L15.7927 17.0057Z" fill="#233447" stroke="#233447" stroke-width="0.0878845" stroke-linecap="round" stroke-linejoin="round"/>
<path d="M9.38607 21.7427L9.80792 18.1746L7.05713 18.2537L9.38607 21.7427Z" fill="#CD6116" stroke="#CD6116" stroke-width="0.0878845" stroke-linecap="round" stroke-linejoin="round"/>
<path d="M18.1921 18.1746L18.6139 21.7427L20.9429 18.2537L18.1921 18.1746Z" fill="#CD6116" stroke="#CD6116" stroke-width="0.0878845" stroke-linecap="round" stroke-linejoin="round"/>
<path d="M20.2836 14.2461L15.3445 14.4658L15.8015 17.0057L16.531 15.4765L18.2887 16.2762L20.2836 14.2461Z" fill="#CD6116" stroke="#CD6116" stroke-width="0.0878845" stroke-linecap="round" stroke-linejoin="round"/>
<path d="M9.72007 16.2762L11.4777 15.4765L12.1984 17.0057L12.6642 14.4658L7.71631 14.2461L9.72007 16.2762Z" fill="#CD6116" stroke="#CD6116" stroke-width="0.0878845" stroke-linecap="round" stroke-linejoin="round"/>
<path d="M7.71631 14.2461L9.79038 18.2888L9.72007 16.2762L7.71631 14.2461Z" fill="#E4751F" stroke="#E4751F" stroke-width="0.0878845" stroke-linecap="round" stroke-linejoin="round"/>
<path d="M18.2888 16.2762L18.2009 18.2888L20.2837 14.2461L18.2888 16.2762Z" fill="#E4751F" stroke="#E4751F" stroke-width="0.0878845" stroke-linecap="round" stroke-linejoin="round"/>
<path d="M12.6643 14.4658L12.1985 17.0057L12.7785 20.0025L12.9103 16.0565L12.6643 14.4658Z" fill="#E4751F" stroke="#E4751F" stroke-width="0.0878845" stroke-linecap="round" stroke-linejoin="round"/>
<path d="M15.3447 14.4658L15.1074 16.0477L15.2129 20.0025L15.8017 17.0057L15.3447 14.4658Z" fill="#E4751F" stroke="#E4751F" stroke-width="0.0878845" stroke-linecap="round" stroke-linejoin="round"/>
<path d="M15.8017 17.0055L15.2129 20.0024L15.6348 20.2924L18.201 18.2887L18.2889 16.2761L15.8017 17.0055Z" fill="#F6851B" stroke="#F6851B" stroke-width="0.0878845" stroke-linecap="round" stroke-linejoin="round"/>
<path d="M9.71997 16.2761L9.79028 18.2887L12.3566 20.2924L12.7784 20.0024L12.1983 17.0055L9.71997 16.2761Z" fill="#F6851B" stroke="#F6851B" stroke-width="0.0878845" stroke-linecap="round" stroke-linejoin="round"/>
<path d="M15.8455 23.0522L15.8718 22.2349L15.6521 22.0415H12.3389L12.1367 22.2349L12.1543 23.0522L9.38599 21.7427L10.3527 22.5337L12.3125 23.8959H15.6785L17.6471 22.5337L18.6138 21.7427L15.8455 23.0522Z" fill="#C0AD9E" stroke="#C0AD9E" stroke-width="0.0878845" stroke-linecap="round" stroke-linejoin="round"/>
<path d="M15.6346 20.2924L15.2127 20.0024H12.7783L12.3565 20.2924L12.1367 22.2347L12.3389 22.0413H15.6521L15.8718 22.2347L15.6346 20.2924Z" fill="#161616" stroke="#161616" stroke-width="0.0878845" stroke-linecap="round" stroke-linejoin="round"/>
<path d="M24.4584 10.0364L25.2054 6.45069L24.0892 3.11987L15.6348 9.39482L18.8865 12.1456L23.4828 13.4903L24.5023 12.3038L24.0629 11.9874L24.7659 11.3459L24.2211 10.924L24.9241 10.3879L24.4584 10.0364Z" fill="#763D16" stroke="#763D16" stroke-width="0.0878845" stroke-linecap="round" stroke-linejoin="round"/>
<path d="M2.79468 6.45069L3.5417 10.0364L3.06713 10.3879L3.7702 10.924L3.23411 11.3459L3.93718 11.9874L3.49776 12.3038L4.50843 13.4903L9.10479 12.1456L12.3566 9.39482L3.90203 3.11987L2.79468 6.45069Z" fill="#763D16" stroke="#763D16" stroke-width="0.0878845" stroke-linecap="round" stroke-linejoin="round"/>
<path d="M23.4827 13.4902L18.8864 12.1455L20.2837 14.246L18.2009 18.2887L20.9429 18.2535H25.0295L23.4827 13.4902Z" fill="#F6851B" stroke="#F6851B" stroke-width="0.0878845" stroke-linecap="round" stroke-linejoin="round"/>
<path d="M9.1048 12.1455L4.50844 13.4902L2.97925 18.2535H7.05709L9.79029 18.2887L7.71622 14.246L9.1048 12.1455Z" fill="#F6851B" stroke="#F6851B" stroke-width="0.0878845" stroke-linecap="round" stroke-linejoin="round"/>
<path d="M15.3446 14.4657L15.6347 9.39476L16.9705 5.78271H11.0383L12.3566 9.39476L12.6642 14.4657L12.7696 16.0652L12.7784 20.0024H15.2128L15.2304 16.0652L15.3446 14.4657Z" fill="#F6851B" stroke="#F6851B" stroke-width="0.0878845" stroke-linecap="round" stroke-linejoin="round"/>
</g>
<defs>

</defs>
</svg>
