<svg width="204" height="24" viewBox="0 0 204 24" fill="none" xmlns="http://www.w3.org/2000/svg">
<path fill-rule="evenodd" clip-rule="evenodd" d="M12.6036 0.143982H25.4261C26.494 0.143982 27.3705 0.730784 27.9403 1.50005C28.5103 2.26949 28.8291 3.27958 28.8291 4.34664C28.8291 5.41369 28.5103 6.42378 27.9403 7.19323C27.3705 7.96249 26.494 8.54929 25.4261 8.54929H12.5516C10.6615 8.54929 9.12089 10.0896 9.12089 11.9999C9.12089 13.9103 10.6615 15.4506 12.5516 15.4506H25.4261C26.494 15.4506 27.3705 16.0374 27.9403 16.8067C28.5103 17.5761 28.8291 18.5862 28.8291 19.6532C28.8291 20.7203 28.5103 21.7304 27.9403 22.4998C27.3705 23.2691 26.494 23.8559 25.4261 23.8559H12.6036C6.04117 23.8559 0.715576 18.551 0.715576 11.9999C0.715576 5.44894 6.04117 0.143982 12.6036 0.143982ZM2.95255 11.9999C2.95255 6.69066 7.27032 2.38096 12.6036 2.38096H22.4118C22.1589 2.97785 22.023 3.65011 22.023 4.34664C22.023 5.04317 22.1589 5.71542 22.4118 6.31232H12.5516C9.41681 6.31232 6.88391 8.86337 6.88391 11.9999C6.88391 15.1365 9.41681 17.6876 12.5516 17.6876H22.4118C22.1589 18.2845 22.023 18.9567 22.023 19.6532C22.023 20.3498 22.1589 21.022 22.4118 21.6189H12.6036C7.27032 21.6189 2.95255 17.3092 2.95255 11.9999ZM26.1428 5.86172C25.8857 6.20871 25.6199 6.31232 25.4261 6.31232C25.2322 6.31232 24.9664 6.20871 24.7094 5.86172C24.4525 5.51492 24.26 4.98292 24.26 4.34664C24.26 3.71035 24.4525 3.17836 24.7094 2.83156C24.9664 2.48457 25.2322 2.38096 25.4261 2.38096C25.6199 2.38096 25.8857 2.48457 26.1428 2.83156C26.3996 3.17836 26.5922 3.71035 26.5922 4.34664C26.5922 4.98292 26.3996 5.51491 26.1428 5.86172ZM26.1428 21.1683C25.8857 21.5153 25.6199 21.6189 25.4261 21.6189C25.2322 21.6189 24.9664 21.5153 24.7094 21.1683C24.4525 20.8215 24.26 20.2895 24.26 19.6532C24.26 19.017 24.4525 18.485 24.7094 18.1382C24.9664 17.7912 25.2322 17.6876 25.4261 17.6876C25.6199 17.6876 25.8857 17.7912 26.1428 18.1382C26.3996 18.485 26.5922 19.017 26.5922 19.6532C26.5922 20.2895 26.3996 20.8215 26.1428 21.1683Z" fill="white"/>
<path fill-rule="evenodd" clip-rule="evenodd" d="M52.3929 17.3687C56.4618 17.3687 59.1179 15.2636 59.1179 11.9999C59.1179 8.73632 56.4618 6.63121 52.3929 6.63121C48.3098 6.63121 45.6678 8.73632 45.6678 11.9999C45.6678 15.2494 48.3098 17.3687 52.3929 17.3687ZM52.3929 15.2494C50.1606 15.2494 48.6771 13.9355 48.6771 11.9999C48.6771 10.0502 50.1606 8.75044 52.3929 8.75044C54.611 8.75044 56.0945 10.0502 56.0945 11.9999C56.0945 13.9496 54.611 15.2494 52.3929 15.2494Z" fill="white"/>
<path d="M80.242 17.0155H77.6565V6.98441H80.7082L85.9215 12.6781L85.9478 12.7101C86.2617 13.0921 86.534 13.4235 86.7127 13.8084H86.7692V6.98441H89.3547V17.0155H86.5149L81.1038 11.2653C80.8353 10.9545 80.4539 10.4458 80.2985 10.1209H80.242V17.0155Z" fill="white"/>
<path fill-rule="evenodd" clip-rule="evenodd" d="M108.904 17.0155H115.22C118.822 17.0155 121.323 14.9527 121.323 11.8304C121.323 8.69393 118.964 6.98441 115.276 6.98441H108.904V17.0155ZM111.758 15.0799V8.91998H114.838C116.887 8.91998 118.3 9.92309 118.3 11.8869C118.3 13.8931 117 15.0799 114.852 15.0799H111.758Z" fill="white"/>
<path d="M139.687 12.4944V6.98441H142.555V12.226C142.555 13.9214 143.615 15.1223 145.593 15.1223C147.5 15.1223 148.616 13.9214 148.616 12.226V6.98441H151.47V12.5227C151.47 15.419 149.379 17.3687 145.593 17.3687C141.792 17.3687 139.687 15.4049 139.687 12.4944Z" fill="white"/>
<path d="M173.481 6.98441H170.627V17.0155H173.481V6.98441Z" fill="white"/>
<path d="M191.872 6.98441H203.062V9.20255H198.894V17.0155H196.04V9.20255H191.872V6.98441Z" fill="white"/>
</svg>
