<svg width="193" height="22" viewBox="0 0 193 22" fill="none" xmlns="http://www.w3.org/2000/svg">
<path d="M19.283 6.5922C18.7914 6.87488 18.3004 7.15855 17.8102 7.44319C17.0959 7.8576 16.3818 8.2724 15.6678 8.68759C15.166 8.97969 14.6647 9.27327 14.1575 9.5692C14.0441 9.32863 13.9337 9.0907 13.8206 8.85396C13.3518 7.8737 12.6674 7.07659 11.7928 6.43937C10.9236 5.80348 9.90769 5.40038 8.8407 5.26801C7.42382 5.08368 6.08868 5.36606 4.85111 6.08072C3.84244 6.65649 3.01063 7.49982 2.44658 8.51857C1.49789 10.2167 1.35609 11.9982 1.97487 13.8327C2.6086 15.7102 3.70349 17.2732 5.24254 18.5182C6.2351 19.3189 7.36665 19.9279 8.57994 20.3144C9.88505 20.7398 11.2649 20.8832 12.629 20.7352C13.089 20.6866 13.544 20.59 14.0013 20.5149C14.0429 20.5081 14.0843 20.4996 14.1256 20.4919C14.1291 20.5034 14.1323 20.5149 14.1358 20.5264C13.7804 20.6457 13.4294 20.7787 13.0694 20.8815C10.9473 21.4855 8.83777 21.4654 6.74556 20.7325C5.22467 20.1995 3.90565 19.3435 2.78615 18.1843C1.91393 17.2814 1.2386 16.2438 0.740524 15.0865C0.377221 14.2426 0.122031 13.371 0.0373582 12.4564C-0.123491 10.707 0.233366 9.07009 1.14103 7.56274C2.1407 5.90287 3.5485 4.72679 5.36267 4.07043C7.28582 3.37462 9.20751 3.44588 11.097 4.2156C12.5754 4.81896 13.7626 5.79421 14.6682 7.11575C14.7098 7.17602 14.7522 7.23599 14.7953 7.29567C14.8003 7.30273 14.8115 7.30539 14.8314 7.31658L17.2207 5.92407C15.3078 3.51125 12.8517 2.16704 9.81312 1.96033C6.77456 1.75361 4.16318 2.79247 1.92594 4.89875C3.4899 2.72828 6.43001 0.618172 10.1999 0.691493C14.3623 0.77247 17.3692 2.79395 19.3908 6.39521C19.3908 6.39521 19.4201 6.4541 19.4424 6.49768M14.1701 12.4611C13.1042 14.6866 11.3947 15.5694 8.98748 15.108C9.41817 15.4434 9.8808 15.6916 10.3868 15.8271C11.9836 16.2549 13.3896 15.8945 14.5829 14.7376C14.6679 14.6551 14.7277 14.6389 14.8317 14.7002C15.4006 15.0341 15.9726 15.3607 16.5433 15.6916C16.6939 15.78 16.8424 15.8683 16.9863 15.9549C16.9813 15.9843 16.9831 15.9949 16.9778 16.0011C16.9565 16.0277 16.9337 16.0531 16.9095 16.0771C15.732 17.2228 14.3195 17.8439 12.6905 17.949C11.4673 18.0288 10.3042 17.7688 9.24092 17.1613C7.31922 16.0632 6.22492 14.3886 5.95625 12.1849C5.83906 11.2232 5.9211 10.2709 6.3011 9.36779C6.98581 7.73795 8.67252 6.65521 10.3997 6.78448C10.4556 6.78861 10.5125 6.78448 10.569 6.78448C10.4946 6.74985 10.4157 6.72596 10.3346 6.71352C9.76619 6.6116 9.18552 6.59829 8.61305 6.67406C7.06726 6.86546 5.86162 7.60515 5.05327 8.95083C4.39728 10.0433 4.20889 11.2426 4.37003 12.495C4.50899 13.6139 4.8815 14.6908 5.46316 15.6551C6.48099 17.3412 7.91955 18.5032 9.78059 19.1277C10.9279 19.5129 12.1078 19.6041 13.3076 19.4758C14.2461 19.3748 15.159 19.1055 16.003 18.6807C16.9001 18.2325 17.693 17.6383 18.3443 16.8715C18.7114 16.4413 19.0337 15.974 19.3946 15.4985L14.1701 12.4611Z" fill="white"/>
<path fill-rule="evenodd" clip-rule="evenodd" d="M42.1674 16.3687C46.2364 16.3687 48.8925 14.2636 48.8925 11C48.8925 7.73634 46.2364 5.63123 42.1674 5.63123C38.0844 5.63123 35.4424 7.73634 35.4424 11C35.4424 14.2495 38.0844 16.3687 42.1674 16.3687ZM42.1674 14.2495C39.9352 14.2495 38.4517 12.9355 38.4517 11C38.4517 9.05026 39.9352 7.75046 42.1674 7.75046C44.3856 7.75046 45.869 9.05026 45.869 11C45.869 12.9497 44.3856 14.2495 42.1674 14.2495Z" fill="white"/>
<path d="M70.0165 16.0155H67.4311V5.98443H70.4828L75.6961 11.6781L75.7224 11.7101C76.0363 12.0921 76.3086 12.4235 76.4873 12.8084H76.5438V5.98443H79.1293V16.0155H76.2895L70.8784 10.2653C70.6099 9.95447 70.2285 9.44586 70.073 9.1209H70.0165V16.0155Z" fill="white"/>
<path fill-rule="evenodd" clip-rule="evenodd" d="M98.6788 16.0155H104.994C108.597 16.0155 111.098 13.9528 111.098 10.8304C111.098 7.69395 108.738 5.98443 105.051 5.98443H98.6788V16.0155ZM101.533 14.0799V7.92H104.613C106.661 7.92 108.074 8.92311 108.074 10.8869C108.074 12.8931 106.774 14.0799 104.627 14.0799H101.533Z" fill="white"/>
<path d="M129.462 11.4945V5.98443H132.33V11.226C132.33 12.9214 133.389 14.1223 135.367 14.1223C137.275 14.1223 138.391 12.9214 138.391 11.226V5.98443H141.245V11.5227C141.245 14.419 139.154 16.3687 135.367 16.3687C131.567 16.3687 129.462 14.4049 129.462 11.4945Z" fill="white"/>
<path d="M163.255 5.98443H160.402V16.0155H163.255V5.98443Z" fill="white"/>
<path d="M181.647 5.98443H192.836V8.20257H188.669V16.0155H185.815V8.20257H181.647V5.98443Z" fill="white"/>
</svg>
