<svg xmlns="http://www.w3.org/2000/svg" width="31" height="32" fill="none">
  <path fill="#fff" d="M29.9241 9.1598c-.7629.4387-1.5248.8789-2.2856 1.3206a3546.6458 3546.6458 0 0 0-3.3245 1.9311c-.7789.4533-1.5568.9089-2.3438 1.3681-.176-.3733-.3474-.7425-.5229-1.1099-.7275-1.5212-1.7896-2.7582-3.1468-3.747a9.8025 9.8025 0 0 0-4.5812-1.8178c-2.1987-.286-4.2706.1522-6.1912 1.2612a9.8465 9.8465 0 0 0-3.7314 3.7831c-1.4722 2.6353-1.6923 5.3999-.732 8.2467.9834 2.9136 2.6825 5.3391 5.0709 7.2711a15.9663 15.9663 0 0 0 5.1791 2.7874 15.0363 15.0363 0 0 0 6.2835.653c.7138-.0754 1.4199-.2253 2.1296-.3418.0646-.0105.1287-.0237.1928-.0356.0055.0178.0105.0356.0159.0534-.5515.1851-1.0962.3916-1.655.5511-3.2931.9372-6.5667.9062-9.8135-.2312-2.3602-.8271-4.407-2.1555-6.1444-3.9545-1.3535-1.401-2.4015-3.0113-3.1744-4.8072C.5854 21.032.1894 19.6794.058 18.2601c-.2496-2.7148.3041-5.255 1.7127-7.5942C3.322 8.0901 5.5067 6.265 8.322 5.2464c2.9844-1.0797 5.9666-.9691 8.8987.2253 2.2943.9363 4.1366 2.4498 5.5419 4.5006.0646.0935.1304.1866.1974.2792.0077.011.025.0151.0559.0324l3.7078-2.161c-2.9685-3.7442-6.78-5.8302-11.4953-6.151-4.7154-.3208-8.7678 1.2914-12.2397 4.56C5.4157 3.1636 9.9783-.111 15.8285.0029 22.288.1285 26.9542 3.2656 30.0914 8.854c0 0 .0455.0914.08.159m-8.1817 9.2543c-1.6541 3.4537-4.307 4.8236-8.0426 4.1076.6684.5205 1.3863.9057 2.1715 1.1159 2.4779.6639 4.6599.1046 6.5117-1.6908.1319-.1279.2246-.153.386-.058.883.5182 1.7705 1.025 2.6562 1.5386.2337.1371.4642.2742.6875.4085-.0078.0457-.005.0621-.0132.0717a1.3463 1.3463 0 0 1-.106.1179c-1.8273 1.778-4.0192 2.7418-6.5472 2.9049-1.8982.1238-3.7032-.2797-5.3532-1.2224-2.9822-1.7039-4.6803-4.3027-5.0973-7.7225-.1818-1.4924-.0545-2.9702.5352-4.3717 1.0625-2.5293 3.6801-4.2095 6.3603-4.0089.0869.0064.1751 0 .2628 0a1.3451 1.3451 0 0 0-.3637-.1101 8.6824 8.6824 0 0 0-2.6716-.0612c-2.3989.297-4.2698 1.4449-5.5242 3.5331-1.018 1.6953-1.3104 3.5565-1.0603 5.5a12.4705 12.4705 0 0 0 1.6963 4.904c1.5795 2.6165 3.812 4.4197 6.7 5.3889 1.7805.5977 3.6114.7394 5.4733.5401a12.2038 12.2038 0 0 0 4.1829-1.2338c1.3922-.6954 2.6225-1.6176 3.6332-2.8075.5697-.6676 1.0699-1.3928 1.63-2.1308l-8.1076-4.7135Z" />
</svg>